<?xml version="1.0" encoding="UTF-8" standalone="no"?>
<!-- Created with Inkscape (http://www.inkscape.org/) -->

<svg
   xmlns:dc="http://purl.org/dc/elements/1.1/"
   xmlns:cc="http://creativecommons.org/ns#"
   xmlns:rdf="http://www.w3.org/1999/02/22-rdf-syntax-ns#"
   xmlns:svg="http://www.w3.org/2000/svg"
   xmlns="http://www.w3.org/2000/svg"
   xmlns:sodipodi="http://sodipodi.sourceforge.net/DTD/sodipodi-0.dtd"
   xmlns:inkscape="http://www.inkscape.org/namespaces/inkscape"
   id="svg2"
   version="1.1"
   inkscape:version="0.91 r13725"
   xml:space="preserve"
   width="1691.7919"
   height="177.2948"
   viewBox="0 0 1691.7919 177.2948"
   sodipodi:docname="popcop_frame_format.svg"><metadata
     id="metadata8"><rdf:RDF><cc:Work
         rdf:about=""><dc:format>image/svg+xml</dc:format><dc:type
           rdf:resource="http://purl.org/dc/dcmitype/StillImage" /><dc:title></dc:title></cc:Work></rdf:RDF></metadata><defs
     id="defs6"><clipPath
       clipPathUnits="userSpaceOnUse"
       id="clipPath18"><path
         d="m -2,-2 1388,0 0,165 -1388,0 0,-165 z"
         id="path20"
         inkscape:connector-curvature="0" /></clipPath></defs><sodipodi:namedview
     pagecolor="#ffffff"
     bordercolor="#666666"
     borderopacity="1"
     objecttolerance="10"
     gridtolerance="10"
     guidetolerance="10"
     inkscape:pageopacity="0"
     inkscape:pageshadow="2"
     inkscape:window-width="1920"
     inkscape:window-height="1151"
     id="namedview4"
     showgrid="false"
     fit-margin-top="0"
     fit-margin-left="0"
     fit-margin-right="0"
     fit-margin-bottom="0"
     inkscape:zoom="0.61699346"
     inkscape:cx="887.15375"
     inkscape:cy="-115.4166"
     inkscape:window-x="1920"
     inkscape:window-y="0"
     inkscape:window-maximized="1"
     inkscape:current-layer="g10" /><g
     id="g10"
     inkscape:groupmode="layer"
     inkscape:label="Popcop frame format - Sheet1"
     transform="matrix(1.25,0,0,-1.25,341.21965,729.33815)"><path
       inkscape:connector-curvature="0"
       id="path28"
       style="fill:#f4cccc;fill-opacity:1;fill-rule:nonzero;stroke:none"
       d="m -272.97572,583.47052 221.743346,0 0,-115.8659 -221.743346,0 0,115.8659 z" /><path
       inkscape:connector-curvature="0"
       id="path30"
       style="fill:#cfe2f3;fill-opacity:1;fill-rule:nonzero;stroke:none"
       d="m -52.231214,583.47052 310.640464,0 0,-115.8659 -310.640464,0 0,115.8659 z" /><path
       inkscape:connector-curvature="0"
       id="path32"
       style="fill:#fff2cc;fill-opacity:1;fill-rule:nonzero;stroke:none"
       d="m 257.41041,583.47052 310.64046,0 0,-115.8659 -310.64046,0 0,115.8659 z" /><path
       inkscape:connector-curvature="0"
       id="path34"
       style="fill:#d9ead3;fill-opacity:1;fill-rule:nonzero;stroke:none"
       d="m 567.05203,583.47052 292.66126,0 0,-115.8659 -292.66126,0 0,115.8659 z" /><path
       inkscape:connector-curvature="0"
       id="path36"
       style="fill:#f4cccc;fill-opacity:1;fill-rule:nonzero;stroke:none"
       d="m 858.71445,583.47052 221.74335,0 0,-115.8659 -221.74335,0 0,115.8659 z" /><path
       inkscape:connector-curvature="0"
       id="path38"
       style="fill:none;stroke:#000000;stroke-width:0.99884391;stroke-linecap:butt;stroke-linejoin:miter;stroke-miterlimit:10;stroke-dasharray:none;stroke-opacity:1"
       d="m -272.4763,583.47052 0,-115.8659 m 220.744506,115.8659 0,-141.83584 m 309.641624,141.83584 0,-115.8659 m -310.141044,-25.47052 620.282084,0 m -0.49942,141.33642 0,-141.83584 m 291.66242,141.83584 0,-115.8659 m -1132.18959,115.36648 1353.43352,0 m -1353.43352,-25.96994 1353.43352,0 m -1353.43352,-88.89712 1353.43352,0 m -0.4994,115.36648 0,-115.8659" /><text
       id="text40"
       style="font-variant:normal;font-weight:bold;font-size:18.17895889px;font-family:Arial;-inkscape-font-specification:Arial-BoldMT;writing-mode:lr-tb;fill:#000000;fill-opacity:1;fill-rule:nonzero;stroke:none"
       transform="scale(1,-1)"
       x="-268.98035"
       y="-563.43408"><tspan
         id="tspan42"
         sodipodi:role="line"
         y="-563.43408"
         x="-268.98035 -257.89117 -250.81956 -240.71205 -224.55096 -214.44347 -209.4079 -196.28268 -186.17519 -181.1396 -176.10403 -159.94295 -154.90739 -148.85379 -138.74628">Frame Delimiter</tspan></text>
<text
       id="text44"
       style="font-variant:normal;font-weight:bold;font-size:18.17895889px;font-family:Arial;-inkscape-font-specification:Arial-BoldMT;writing-mode:lr-tb;fill:#000000;fill-opacity:1;fill-rule:nonzero;stroke:none"
       transform="scale(1,-1)"
       x="-48.235847"
       y="-563.43408"><tspan
         id="tspan46"
         sodipodi:role="line"
         y="-563.43408"
         x="-48.235847 -36.128639 -26.021154 -15.913641 -10.878088 0.21108393 10.318598 21.40777 26.443323 31.478907 41.586388 46.621971 51.657555 56.693108 69.636528 74.672112 85.761253 95.868767 101.92236 112.02984">Payload, 0...∞ bytes</tspan></text>
<text
       id="text48"
       style="font-variant:normal;font-weight:bold;font-size:18.17895889px;font-family:Arial;-inkscape-font-specification:Arial-BoldMT;writing-mode:lr-tb;fill:#000000;fill-opacity:1;fill-rule:nonzero;stroke:none"
       transform="scale(1,-1)"
       x="261.40576"
       y="-563.43408"><tspan
         id="tspan50"
         sodipodi:role="line"
         y="-563.43408"
         x="261.40576 272.49493 279.56659 289.67407 305.83514 315.94269 320.97821 332.06738 342.17493 353.26404 363.37158 368.40717 381.53235 392.62152 403.71069 413.81818">Frame Type Code </tspan></text>
<text
       id="text52"
       style="font-variant:normal;font-size:18.17895889px;font-family:MS;-inkscape-font-specification:MS-PGothic;writing-mode:lr-tb;fill:#000000;fill-opacity:1;fill-rule:nonzero;stroke:#000000;stroke-width:0.74913293;stroke-linecap:square;stroke-linejoin:miter;stroke-miterlimit:10;stroke-dasharray:none;stroke-opacity:1"
       transform="scale(1,-1)"
       x="418.88995"
       y="-563.43408"><tspan
         id="tspan54"
         y="-563.43408"
         x="418.88995"
         style="stroke-width:0.74913293">∈</tspan></text>
<text
       id="text56"
       style="font-variant:normal;font-weight:bold;font-size:18.17895889px;font-family:Arial;-inkscape-font-specification:Arial-BoldMT;writing-mode:lr-tb;fill:#000000;fill-opacity:1;fill-rule:nonzero;stroke:none"
       transform="scale(1,-1)"
       x="441.90472"
       y="-563.43408"><tspan
         id="tspan58"
         sodipodi:role="line"
         y="-563.43408"
         x="441.90472 447.95831 458.0658 463.10138 468.13696 478.24445 488.35193 498.45947">[0, 255]</tspan></text>
<text
       id="text60"
       style="font-variant:normal;font-weight:bold;font-size:18.17895889px;font-family:Arial;-inkscape-font-specification:Arial-BoldMT;writing-mode:lr-tb;fill:#000000;fill-opacity:1;fill-rule:nonzero;stroke:none"
       transform="scale(1,-1)"
       x="571.04736"
       y="-563.43408"><tspan
         id="tspan62"
         sodipodi:role="line"
         y="-563.43408"
         x="571.04736 584.17261 597.29779 610.42303 620.53046 630.638 643.76324 648.79877 654.85236 667.9776 678.08514 688.19257 694.24615 704.3537 715.44281 726.53204 737.62115 742.6568 747.69232 753.74591 758.78143 763.81708 773.92462 778.96014 790.04926 800.1568 806.21039 816.31793">CRC32C (Castagnoli), 4 bytes</tspan></text>
<text
       id="text64"
       style="font-variant:normal;font-weight:bold;font-size:18.17895889px;font-family:Arial;-inkscape-font-specification:Arial-BoldMT;writing-mode:lr-tb;fill:#000000;fill-opacity:1;fill-rule:nonzero;stroke:none"
       transform="scale(1,-1)"
       x="862.70978"
       y="-563.43408"><tspan
         id="tspan66"
         sodipodi:role="line"
         y="-563.43408"
         x="862.70978 873.79901 880.87067 890.97809 907.13922 917.24677 922.28229 935.40753 945.51495 950.5506 955.58612 971.74725 976.78278 982.83636 992.94391">Frame Delimiter</tspan></text>
<text
       id="text68"
       style="font-variant:normal;font-weight:bold;font-size:18.17895889px;font-family:Arial;-inkscape-font-specification:Arial-BoldMT;writing-mode:lr-tb;fill:#000000;fill-opacity:1;fill-rule:nonzero;stroke:none"
       transform="scale(1,-1)"
       x="-268.98035"
       y="-537.46411"><tspan
         id="tspan70"
         sodipodi:role="line"
         y="-537.46411"
         x="-268.98035 -258.87283 -248.76534 -238.65784">0x8E</tspan></text>
<text
       id="text72"
       style="font-variant:normal;font-weight:normal;font-size:18.17895889px;font-family:ArialMT;-inkscape-font-specification:ArialMT;writing-mode:lr-tb;fill:#000000;fill-opacity:1;fill-rule:nonzero;stroke:none"
       transform="scale(1,-1)"
       x="-268.98035"
       y="-516.57446"><tspan
         id="tspan74"
         sodipodi:role="line"
         y="-516.57446"
         x="-268.98035 -256.87317 -246.76566 -236.65814 -232.62242 -222.51492 -213.42545 -208.38988 -203.35429 -193.24678 -183.13928 -178.10373 -167.9962 -157.88873 -144.76352 -139.72794 -134.69238 -128.63876 -118.53129 -103.38822 -93.280708 -88.245125 -78.137642 -68.030159 -57.922646">Begins the new frame and </tspan></text>
<text
       id="text76"
       style="font-variant:normal;font-weight:normal;font-size:18.17895889px;font-family:ArialMT;-inkscape-font-specification:ArialMT;writing-mode:lr-tb;fill:#000000;fill-opacity:1;fill-rule:nonzero;stroke:none"
       transform="scale(1,-1)"
       x="-268.98035"
       y="-495.68475"><tspan
         id="tspan78"
         sodipodi:role="line"
         y="-495.68475"
         x="-268.98035 -258.87283 -248.76534 -239.67586 -230.58638 -226.55064 -216.44315 -212.40742 -203.31795 -198.28239 -193.24678 -183.13928 -177.08571 -161.94264 -157.90689 -147.79941 -137.69189 -132.65631 -122.54884 -113.45936 -108.42381 -103.38822 -93.280708 -83.173225">possibly terminates the </tspan></text>
<text
       id="text80"
       style="font-variant:normal;font-weight:normal;font-size:18.17895889px;font-family:ArialMT;-inkscape-font-specification:ArialMT;writing-mode:lr-tb;fill:#000000;fill-opacity:1;fill-rule:nonzero;stroke:none"
       transform="scale(1,-1)"
       x="-268.98035"
       y="-474.7951"><tspan
         id="tspan82"
         sodipodi:role="line"
         y="-474.7951"
         x="-268.98035 -258.87283 -252.81924 -242.71175 -233.62227 -229.58653 -219.47903 -209.37154 -200.28207 -195.24648 -190.21091 -184.15733 -174.04984 -158.90675 -148.79926">previous frame.</tspan></text>
<text
       id="text84"
       style="font-variant:normal;font-weight:normal;font-size:18.17895889px;font-family:ArialMT;-inkscape-font-specification:ArialMT;writing-mode:lr-tb;fill:#000000;fill-opacity:1;fill-rule:nonzero;stroke:none"
       transform="scale(1,-1)"
       x="-48.235847"
       y="-537.46411"><tspan
         id="tspan86"
         sodipodi:role="line"
         y="-537.46411"
         x="-48.235847 -37.146675 -27.03916 -16.931677 -11.896093 -6.8605103 3.2469726 7.2827086 11.318445 21.425928 34.55114 38.586876 48.694359 58.801872 63.837456 73.944939 83.034416 88.07 98.177483 107.26696 112.30254 122.41003 128.46362 138.57117 143.60675 153.71423 162.80371 171.89319 182.00067 192.10822 202.2157 212.32318">The following bytes are escaped:</tspan></text>
<text
       id="text88"
       style="font-variant:normal;font-weight:bold;font-size:18.17895889px;font-family:Arial;-inkscape-font-specification:Arial-BoldMT;writing-mode:lr-tb;fill:#000000;fill-opacity:1;fill-rule:nonzero;stroke:none"
       transform="scale(1,-1)"
       x="-48.235847"
       y="-516.57446"><tspan
         id="tspan90"
         sodipodi:role="line"
         y="-516.57446"
         x="-48.235847 -38.128334 -28.020819 -17.913336">0x8E</tspan></text>
<text
       id="text92"
       style="font-variant:normal;font-weight:normal;font-size:18.17895889px;font-family:ArialMT;-inkscape-font-specification:ArialMT;writing-mode:lr-tb;fill:#000000;fill-opacity:1;fill-rule:nonzero;stroke:none"
       transform="scale(1,-1)"
       x="-0.7733826"
       y="-516.57446"><tspan
         id="tspan94"
         sodipodi:role="line"
         y="-516.57446"
         x="-0.7733826 5.2802062 10.31576 16.369379 26.476862 41.619926 51.72744 56.762993 66.870506 76.97802 81.013725 85.049461 100.19253 104.22826 109.26385 119.37133 125.42492">(frame delimiter)</tspan></text>
<text
       id="text96"
       style="font-variant:normal;font-weight:bold;font-size:18.17895889px;font-family:Arial;-inkscape-font-specification:Arial-BoldMT;writing-mode:lr-tb;fill:#000000;fill-opacity:1;fill-rule:nonzero;stroke:none"
       transform="scale(1,-1)"
       x="-48.235847"
       y="-495.68475"><tspan
         id="tspan98"
         sodipodi:role="line"
         y="-495.68475"
         x="-48.235847 -38.128334 -28.020819 -17.913336">0x9E</tspan></text>
<text
       id="text100"
       style="font-variant:normal;font-weight:normal;font-size:18.17895889px;font-family:ArialMT;-inkscape-font-specification:ArialMT;writing-mode:lr-tb;fill:#000000;fill-opacity:1;fill-rule:nonzero;stroke:none"
       transform="scale(1,-1)"
       x="-0.7733826"
       y="-495.68475"><tspan
         id="tspan102"
         sodipodi:role="line"
         y="-495.68475"
         x="-0.7733826 5.2802062 15.38769 24.477167 33.566643 43.674156 53.78167 63.889153 68.924736 78.014214 88.121696 98.22921 104.2828 114.39031 123.47979 128.51538 138.62286 144.67645">(escape character)</tspan></text>
<text
       id="text104"
       style="font-variant:normal;font-weight:bold;font-size:18.17895889px;font-family:Arial;-inkscape-font-specification:Arial-BoldMT;writing-mode:lr-tb;fill:#000000;fill-opacity:1;fill-rule:nonzero;stroke:none"
       transform="scale(1,-1)"
       x="261.40576"
       y="-537.46411"><tspan
         id="tspan106"
         sodipodi:role="line"
         y="-537.46411"
         x="261.40576 271.51331 276.54889 281.58441 286.62 296.72754 306.83502">0...127</tspan></text>
<text
       id="text108"
       style="font-variant:normal;font-weight:normal;font-size:18.17895889px;font-family:ArialMT;-inkscape-font-specification:ArialMT;writing-mode:lr-tb;fill:#000000;fill-opacity:1;fill-rule:nonzero;stroke:none"
       transform="scale(1,-1)"
       x="321.99634"
       y="-537.46411"><tspan
         id="tspan110"
         sodipodi:role="line"
         y="-537.46411"
         x="321.99634 327.03186 337.1394 343.19299 348.22858 358.33606 368.44354 378.55103 382.58679 386.6225 395.71198 405.81952 410.85504 414.89081 424.99829 435.10577 441.15936 450.24884 460.35638 470.46387 479.55334 483.58905 488.62463 492.6604 501.74988 506.7854 516.89294 527.00043 532.03601 542.14349">for application-specific data;</tspan></text>
<text
       id="text112"
       style="font-variant:normal;font-weight:bold;font-size:18.17895889px;font-family:Arial;-inkscape-font-specification:Arial-BoldMT;writing-mode:lr-tb;fill:#000000;fill-opacity:1;fill-rule:nonzero;stroke:none"
       transform="scale(1,-1)"
       x="261.40576"
       y="-516.57446"><tspan
         id="tspan114"
         sodipodi:role="line"
         y="-516.57446"
         x="261.40576 271.51331 281.62079 291.72827 296.76385 301.79944 306.83502 316.9425 327.04999">128...255</tspan></text>
<text
       id="text116"
       style="font-variant:normal;font-weight:normal;font-size:18.17895889px;font-family:ArialMT;-inkscape-font-specification:ArialMT;writing-mode:lr-tb;fill:#000000;fill-opacity:1;fill-rule:nonzero;stroke:none"
       transform="scale(1,-1)"
       x="342.203"
       y="-516.57446"><tspan
         id="tspan118"
         sodipodi:role="line"
         y="-516.57446"
         x="342.203 347.23859 357.34613 363.39972 368.43524 378.54279 384.59637 394.70386 399.73944 409.84692 418.9364 429.04395 433.07965 439.13324 449.24072 459.34827 464.38379 468.41956 478.52704 488.63452 498.74207 503.77765 513.88513 523.99261 529.0282 539.13568">for protocol-defined data.</tspan></text>
<text
       id="text120"
       style="font-variant:normal;font-weight:normal;font-size:18.17895889px;font-family:ArialMT;-inkscape-font-specification:ArialMT;writing-mode:lr-tb;fill:#000000;fill-opacity:1;fill-rule:nonzero;stroke:none"
       transform="scale(1,-1)"
       x="261.40576"
       y="-495.68475"><tspan
         id="tspan122"
         sodipodi:role="line"
         y="-495.68475"
         x="261.40576 273.513 282.60248 287.638 297.74554 306.83502">Bytes </tspan></text>
<text
       id="text124"
       style="font-variant:normal;font-weight:bold;font-size:18.17895889px;font-family:Arial;-inkscape-font-specification:Arial-BoldMT;writing-mode:lr-tb;fill:#000000;fill-opacity:1;fill-rule:nonzero;stroke:none"
       transform="scale(1,-1)"
       x="311.8869"
       y="-495.68475"><tspan
         id="tspan126"
         sodipodi:role="line"
         y="-495.68475"
         x="311.8869 321.99438 332.10193 342.20941">0x8E</tspan></text>
<text
       id="text128"
       style="font-variant:normal;font-weight:normal;font-size:18.17895889px;font-family:ArialMT;-inkscape-font-specification:ArialMT;writing-mode:lr-tb;fill:#000000;fill-opacity:1;fill-rule:nonzero;stroke:none"
       transform="scale(1,-1)"
       x="359.34937"
       y="-495.68475"><tspan
         id="tspan130"
         sodipodi:role="line"
         y="-495.68475"
         x="359.34937 369.45685 379.56439 389.67188">and </tspan></text>
<text
       id="text132"
       style="font-variant:normal;font-weight:bold;font-size:18.17895889px;font-family:Arial;-inkscape-font-specification:Arial-BoldMT;writing-mode:lr-tb;fill:#000000;fill-opacity:1;fill-rule:nonzero;stroke:none"
       transform="scale(1,-1)"
       x="394.71826"
       y="-495.68475"><tspan
         id="tspan134"
         sodipodi:role="line"
         y="-495.68475"
         x="394.71826 404.82581 414.93329 425.04077">0x9E</tspan></text>
<text
       id="text136"
       style="font-variant:normal;font-weight:normal;font-size:18.17895889px;font-family:ArialMT;-inkscape-font-specification:ArialMT;writing-mode:lr-tb;fill:#000000;fill-opacity:1;fill-rule:nonzero;stroke:none"
       transform="scale(1,-1)"
       x="442.18066"
       y="-495.68475"><tspan
         id="tspan138"
         sodipodi:role="line"
         y="-495.68475"
         x="442.18066 452.28821 458.3418 468.44928 473.48486 483.59235 492.68182 501.7713 511.87885 521.98633 532.09381 542.20129">are escaped.</tspan></text>
<text
       id="text140"
       style="font-variant:normal;font-weight:normal;font-size:18.17895889px;font-family:ArialMT;-inkscape-font-specification:ArialMT;writing-mode:lr-tb;fill:#000000;fill-opacity:1;fill-rule:nonzero;stroke:none"
       transform="scale(1,-1)"
       x="571.04736"
       y="-537.46411"><tspan
         id="tspan142"
         sodipodi:role="line"
         y="-537.46411"
         x="571.04736 581.15491 585.19061 590.2262 595.26178 599.29749 609.40497 614.44055 624.54803 634.65558 644.76312 648.79877 658.90631 669.01385 674.04938 684.15692 693.2464 698.28192 708.38947 713.42499 718.46051 728.56805 734.62164 749.76471 759.87225 764.90778 769.94342">Little endian byte format. </tspan></text>
<text
       id="text144"
       style="font-variant:normal;font-weight:normal;font-size:18.17895889px;font-family:ArialMT;-inkscape-font-specification:ArialMT;writing-mode:lr-tb;fill:#000000;fill-opacity:1;fill-rule:nonzero;stroke:none"
       transform="scale(1,-1)"
       x="571.04736"
       y="-516.57446"><tspan
         id="tspan146"
         sodipodi:role="line"
         y="-516.57446"
         x="571.04736 584.17261 594.28009 609.42316 619.5307 629.63812 634.67377 644.78119 654.88873 659.92438 670.0318 679.12128 689.22882 695.28241 700.31793 705.35358 715.461 725.56854 730.60406 740.71161 750.81915 759.90863 763.94427 774.05182 784.15936 794.26678 799.30243 809.40985 819.5174 829.62494">Computed over the payload and </tspan></text>
<text
       id="text148"
       style="font-variant:normal;font-weight:normal;font-size:18.17895889px;font-family:ArialMT;-inkscape-font-specification:ArialMT;writing-mode:lr-tb;fill:#000000;fill-opacity:1;fill-rule:nonzero;stroke:none"
       transform="scale(1,-1)"
       x="571.04736"
       y="-495.68475"><tspan
         id="tspan150"
         sodipodi:role="line"
         y="-495.68475"
         x="571.04736 576.08295 586.19049 596.29797 601.33356 606.36908 612.42273 622.53021 637.67328 647.78082 652.81635 657.85187 666.94135 677.04889 687.15643 692.19196 701.28143 711.38898 721.4964 731.60394 736.63959 741.67511 753.78229 762.87177 767.90729 778.01483 787.10431">the frame type code. Bytes </tspan></text>
<text
       id="text152"
       style="font-variant:normal;font-weight:bold;font-size:18.17895889px;font-family:Arial;-inkscape-font-specification:Arial-BoldMT;writing-mode:lr-tb;fill:#000000;fill-opacity:1;fill-rule:nonzero;stroke:none"
       transform="scale(1,-1)"
       x="792.18524"
       y="-495.68475"><tspan
         id="tspan154"
         sodipodi:role="line"
         y="-495.68475"
         x="792.18524 802.29279 812.40021 822.50775">0x8E</tspan></text>
<text
       id="text156"
       style="font-variant:normal;font-weight:normal;font-size:18.17895889px;font-family:ArialMT;-inkscape-font-specification:ArialMT;writing-mode:lr-tb;fill:#000000;fill-opacity:1;fill-rule:nonzero;stroke:none"
       transform="scale(1,-1)"
       x="571.04736"
       y="-474.7951"><tspan
         id="tspan158"
         sodipodi:role="line"
         y="-474.7951"
         x="571.04736 581.15491 591.26239 601.36987">and </tspan></text>
<text
       id="text160"
       style="font-variant:normal;font-weight:bold;font-size:18.17895889px;font-family:Arial;-inkscape-font-specification:Arial-BoldMT;writing-mode:lr-tb;fill:#000000;fill-opacity:1;fill-rule:nonzero;stroke:none"
       transform="scale(1,-1)"
       x="606.4046"
       y="-474.7951"><tspan
         id="tspan162"
         sodipodi:role="line"
         y="-474.7951"
         x="606.4046 616.51208 626.61957 636.72711">0x9E</tspan></text>
<text
       id="text164"
       style="font-variant:normal;font-weight:normal;font-size:18.17895889px;font-family:ArialMT;-inkscape-font-specification:ArialMT;writing-mode:lr-tb;fill:#000000;fill-opacity:1;fill-rule:nonzero;stroke:none"
       transform="scale(1,-1)"
       x="653.86713"
       y="-474.7951"><tspan
         id="tspan166"
         sodipodi:role="line"
         y="-474.7951"
         x="653.86713 663.97455 670.02814 680.13568 685.1712 695.27875 704.36823 713.4577 723.56525 733.67267 743.78021 753.88776">are escaped.</tspan></text>
<text
       id="text168"
       style="font-variant:normal;font-weight:bold;font-size:18.17895889px;font-family:Arial;-inkscape-font-specification:Arial-BoldMT;writing-mode:lr-tb;fill:#000000;fill-opacity:1;fill-rule:nonzero;stroke:none"
       transform="scale(1,-1)"
       x="862.70978"
       y="-537.46411"><tspan
         id="tspan170"
         sodipodi:role="line"
         y="-537.46411"
         x="862.70978 872.81732 882.92487 893.03229">0x8E</tspan></text>
<text
       id="text172"
       style="font-variant:normal;font-weight:normal;font-size:18.17895889px;font-family:ArialMT;-inkscape-font-specification:ArialMT;writing-mode:lr-tb;fill:#000000;fill-opacity:1;fill-rule:nonzero;stroke:none"
       transform="scale(1,-1)"
       x="862.70978"
       y="-516.57446"><tspan
         id="tspan174"
         sodipodi:role="line"
         y="-516.57446"
         x="862.70978 873.79901 883.90656 889.96014 905.10321 909.13885 919.2464 929.35394 934.38947 944.49701 953.58649 958.62201 963.65753 973.76508 983.87262 988.90814 997.99762 1008.1052 1014.1588 1020.2123 1030.3197 1040.4272 1045.4629">Terminates the current </tspan></text>
<text
       id="text176"
       style="font-variant:normal;font-weight:normal;font-size:18.17895889px;font-family:ArialMT;-inkscape-font-specification:ArialMT;writing-mode:lr-tb;fill:#000000;fill-opacity:1;fill-rule:nonzero;stroke:none"
       transform="scale(1,-1)"
       x="862.70978"
       y="-495.68475"><tspan
         id="tspan178"
         sodipodi:role="line"
         y="-495.68475"
         x="862.70978 867.74542 873.79901 883.90656 899.04962 909.15704 914.19269 924.30011 934.40765 944.5152 949.55072 959.65826 969.76569 978.85516 987.94464 991.98041 1002.088 1006.1236 1015.2131 1020.2487 1030.3561 1040.4636 1050.5712 1054.6068 1064.7144 1073.8038">frame and possibly begins </tspan></text>
<text
       id="text180"
       style="font-variant:normal;font-weight:normal;font-size:18.17895889px;font-family:ArialMT;-inkscape-font-specification:ArialMT;writing-mode:lr-tb;fill:#000000;fill-opacity:1;fill-rule:nonzero;stroke:none"
       transform="scale(1,-1)"
       x="862.70978"
       y="-474.7951"><tspan
         id="tspan182"
         sodipodi:role="line"
         y="-474.7951"
         x="862.70978 867.74542 877.85284 887.96039 892.99603 903.10345 913.211 922.30048 927.336 932.37164 937.40717 943.46075 953.5683 968.71136 978.81879">the next frame.</tspan></text>
<text
       id="text184"
       style="font-style:italic;font-variant:normal;font-size:18.17895889px;font-family:Arial;-inkscape-font-specification:Arial-ItalicMT;writing-mode:lr-tb;fill:#000000;fill-opacity:1;fill-rule:nonzero;stroke:none"
       transform="scale(1,-1)"
       x="197.4798"
       y="-448.48096"><tspan
         id="tspan186"
         sodipodi:role="line"
         y="-448.48096"
         x="197.4798 210.60498 223.73016 236.85541 241.89099 251.99847 258.05206 268.15955 273.19513 283.30261 292.39209 297.42767 307.53516">CRC protected</tspan></text>
</g></svg>